<?xml version="1.0" standalone="no"?><!DOCTYPE svg PUBLIC "-//W3C//DTD SVG 1.1//EN" "http://www.w3.org/Graphics/SVG/1.1/DTD/svg11.dtd"><svg t="1564889588322" class="icon" viewBox="0 0 1024 1024" version="1.1" xmlns="http://www.w3.org/2000/svg" p-id="6288" xmlns:xlink="http://www.w3.org/1999/xlink" width="200" height="200"><defs><style type="text/css"></style></defs><path d="M512.027 539.477c101.875 0 184.499-98.285 184.499-219.506s-82.623-219.504-184.499-219.504c-101.926 0-184.551 98.283-184.551 219.504 0 121.222 82.626 219.506 184.551 219.506z" fill="#595A5A" p-id="6289"></path><path d="M662.746 554.859c-48.446 85.111-92.261 127.334-120.010 147.644-7.119-34.885-12.823-63.008-13.162-65.228-0.928-6.103-6.237-6.503-6.237-6.503h-26.275s-5.309 0.4-6.239 6.503c-0.33 2.172-5.789 29.098-12.686 62.895-27.853-21.142-70.218-63.325-116.883-145.311-82.001-144.061-183.309 199.184-183.309 283.931v84.745h668.109v-84.745c0-84.745-101.308-427.991-183.309-283.931z" fill="#595A5A" p-id="6290"></path><path d="M510.197 553.366h-20.038c-11.727 0-17.12 6.72-17.12 18.446 0 0 16.528 48.971 18.579 48.971h37.158c2.049 0 18.579-48.971 18.579-48.971 0-11.727-5.394-18.446-17.12-18.446h-20.038z" fill="#595A5A" p-id="6291"></path></svg>