<?xml version="1.0" standalone="no"?><!DOCTYPE svg PUBLIC "-//W3C//DTD SVG 1.1//EN" "http://www.w3.org/Graphics/SVG/1.1/DTD/svg11.dtd"><svg t="1573974577932" class="icon" viewBox="0 0 1381 1024" version="1.1" xmlns="http://www.w3.org/2000/svg" p-id="2075" xmlns:xlink="http://www.w3.org/1999/xlink" width="269.7265625" height="200"><defs><style type="text/css"></style></defs><path d="M1123.161771 675.998313c-51.955587-31.950527-124.491918-57.568517-209.693324-73.831623-1.727056-0.287843-3.31019-0.431764-5.037245-0.431764-12.808995 0-23.747013 9.067041-26.193676 21.732115-1.295292 7.052143 0.143921 14.104287 4.173718 20.00506s10.074491 9.930569 17.126634 11.225861c75.846521 14.536051 140.467182 36.69993 186.809838 63.901054 45.479129 26.769361 69.513985 55.841462 69.513985 84.481799 0 39.578356-46.77442 80.595924-128.377794 112.546451-90.670415 35.548559-211.996065 55.121855-341.237386 55.121856-129.385242 0-250.566971-19.573296-341.237385-55.121856-81.603373-31.950527-128.377793-72.968096-128.377794-112.546451 0-28.208573 23.603092-56.992832 68.218693-83.618271 45.62305-27.057203 109.09234-49.221082 183.499649-63.901054 7.052143-1.439213 13.096838-5.469009 16.982712-11.369782 4.029796-5.900773 5.469009-13.096838 4.029797-20.00506-2.446662-12.521152-13.528602-21.588194-26.193676-21.588194-1.727056 0-3.454111 0.143921-5.181166 0.575685-84.050035 16.550949-155.434996 42.168939-206.383135 73.831623-73.255938 45.479129-88.655517 93.54884-88.655516 125.931132 0 63.613212 57.712439 121.32565 162.343218 162.343218 96.85903 37.8513 224.948981 58.719888 360.810682 58.719888 135.861701 0 263.951651-20.868587 360.810682-58.719888C1155.544062 924.262544 1213.2565 866.550105 1213.2565 802.936894c0-32.670134-15.687421-81.171609-90.094729-126.938581z" p-id="2076" fill="#595A5A"></path><path d="M467.168517 485.3026c33.533661 72.536332 95.70766 187.097681 202.065496 320.51272 5.037245 6.332537 12.665074 10.074491 20.868587 10.07449 0.719606 0 1.439213 0 2.302741-0.143921 0.863528 0.143921 1.583134 0.143921 2.302741 0.143921 8.203514 0 15.831342-3.741954 20.868587-10.07449 106.357836-133.55896 168.531834-247.976388 202.065495-320.51272 35.260717-76.422207 47.062263-123.628391 48.357555-128.809557 6.764301-24.322699 10.218412-49.652846 10.218412-75.126915 0-75.126915-29.216022-145.79227-82.466901-198.899227C840.35643 29.216022 769.691075 0 694.56416 0c-0.719606 0-1.439213 0-2.30274 0.143921-0.719606-0.143921-1.439213-0.143921-2.15882-0.143921-75.126915 0-145.79227 29.216022-198.899227 82.466901-53.106957 53.106957-82.466901 123.772312-82.466901 198.899227 0 25.474069 3.454111 50.804216 10.074491 74.982994 1.295292 5.181167 13.096838 52.531272 48.357554 128.953478z m-5.037245-203.936472c0-125.643289 102.328039-227.971328 227.971328-227.971328 0.719606 0 1.439213 0 2.302741-0.143922 0.719606 0 1.583134 0.143921 2.302741 0.143922C820.35137 53.3948 922.535488 155.722839 922.535488 281.366128c0 20.868587-2.878426 41.449332-8.347435 61.454392l-0.287842 1.007449c-0.431764 1.727056-40.585805 169.971047-221.638791 404.994519-91.677864-119.166831-146.224034-220.199578-175.871821-284.100633-34.397189-74.407309-45.335207-119.022909-45.766971-120.893886l-0.287842-1.007449c-5.469009-20.00506-8.203514-40.585805-8.203514-61.454392z" p-id="2077" fill="#595A5A"></path><path d="M690.1026 430.468587c75.7026 0 137.300914-61.598313 137.300914-137.300913 0-75.7026-61.598313-137.300914-137.300914-137.300914s-137.300914 61.598313-137.300913 137.300914c0 75.7026 61.598313 137.300914 137.300913 137.300913z m-83.906114-137.300913c0-46.198735 37.563457-83.906114 83.906114-83.906114 46.198735 0 83.906114 37.563457 83.906114 83.906114S736.301335 377.073788 690.1026 377.073788c-46.342656 0-83.906114-37.707379-83.906114-83.906114z" p-id="2078" fill="#595A5A"></path></svg>