<?xml version="1.0" standalone="no"?><!DOCTYPE svg PUBLIC "-//W3C//DTD SVG 1.1//EN" "http://www.w3.org/Graphics/SVG/1.1/DTD/svg11.dtd"><svg t="1575773355671" class="icon" viewBox="0 0 1024 1024" version="1.1" xmlns="http://www.w3.org/2000/svg" p-id="2795" xmlns:xlink="http://www.w3.org/1999/xlink" width="128" height="128"><defs><style type="text/css"></style></defs><path d="M511.998 0C229.688 0 0 229.708 0 511.998 0 794.292 229.708 1024 511.998 1024 794.292 1024 1024 794.292 1024 511.998 1024 229.708 794.312 0 511.998 0z m0 981.569c-258.921 0-469.546-210.647-469.546-469.571 0-258.919 210.625-469.571 469.546-469.571 258.924 0 469.551 210.652 469.551 469.571 0 258.924-210.627 469.571-469.551 469.571z m0-474.409" fill="#595A5A" p-id="2796"></path><path d="M727.258 198H295.126C269.693 198 249 218.694 249 244.126v555.747C249 825.306 269.693 846 295.126 846h286.602c4.068 0 7.962-1.626 10.822-4.519l176.444-178.555a15.22 15.22 0 0 0 4.392-10.692V244.126C773.385 218.694 752.691 198 727.258 198zM279.423 799.873V244.126c0-8.66 7.044-15.704 15.703-15.704h432.129c8.663 0 15.708 7.044 15.708 15.704v392.891H607.226c-25.433 0-46.126 20.694-46.126 46.127v132.434H295.126c-8.659-0.001-15.703-7.045-15.703-15.705z m312.1-0.634V683.144c0-8.66 7.044-15.704 15.703-15.704H721.76L591.523 799.239zM353.954 308.852c0-8.401 6.808-15.213 15.21-15.213h284.058c8.401 0 15.21 6.812 15.21 15.213 0 8.402-6.808 15.21-15.21 15.21H369.164c-8.402-0.001-15.21-6.809-15.21-15.21z m0 119.781c0-8.401 6.808-15.213 15.21-15.213h284.058c8.401 0 15.21 6.812 15.21 15.213s-6.808 15.21-15.21 15.21H369.164c-8.402 0.001-15.21-6.808-15.21-15.21z m15.21 134.993c-8.401 0-15.21-6.808-15.21-15.21s6.808-15.213 15.21-15.213h284.058c8.401 0 15.21 6.812 15.21 15.213s-6.808 15.21-15.21 15.21H369.164z m0 0" fill="#595A5A" p-id="2797"></path></svg>