<?xml version="1.0" standalone="no"?><!DOCTYPE svg PUBLIC "-//W3C//DTD SVG 1.1//EN" "http://www.w3.org/Graphics/SVG/1.1/DTD/svg11.dtd"><svg t="1581001171117" class="icon" viewBox="0 0 1024 1024" version="1.1" xmlns="http://www.w3.org/2000/svg" p-id="3246" xmlns:xlink="http://www.w3.org/1999/xlink" width="128" height="128"><defs><style type="text/css"></style></defs><path d="M956.8 1017.6H67.2v-24c4.8-201.6 99.2-308.8 297.6-342.4l16-3.2 8 14.4c19.2 35.2 36.8 73.6 51.2 113.6 0-14.4-1.6-30.4-1.6-49.6l-1.6-25.6H576v89.6c3.2-6.4 4.8-14.4 8-20.8 14.4-35.2 27.2-72 46.4-107.2l8-16 17.6 3.2c200 32 297.6 144 299.2 342.4l1.6 25.6z m-489.6-48h440c-6.4-153.6-81.6-236.8-240-267.2-12.8 27.2-24 57.6-35.2 86.4-16 40-30.4 80-51.2 115.2L544 966.4l-8-72c-4.8-40-4.8-65.6-4.8-131.2v-12.8h-40c4.8 91.2 3.2 96-6.4 147.2l-17.6 72z m-350.4 0h345.6l-25.6-68.8c-6.4-14.4-11.2-30.4-17.6-46.4-19.2-52.8-38.4-105.6-62.4-152-156.8 28.8-230.4 110.4-240 267.2z m392-308.8c-132.8 0-200-148.8-222.4-211.2-28.8-14.4-48-44.8-52.8-80-3.2-27.2 4.8-52.8 20.8-68.8-9.6-83.2-11.2-172.8 40-222.4S424 16 494.4 9.6c86.4-8 124.8 8 148.8 17.6 8 3.2 14.4 6.4 20.8 6.4 33.6 1.6 59.2 12.8 76.8 35.2 40 48 32 131.2 24 204.8-1.6 8-1.6 16-3.2 24 22.4 24 32 60.8 24 94.4-6.4 25.6-20.8 44.8-43.2 54.4-28.8 81.6-96 208-222.4 216-4.8-1.6-8-1.6-11.2-1.6z m32-603.2c-11.2 0-25.6 0-40 1.6-64 4.8-132.8 16-172.8 54.4-38.4 38.4-33.6 123.2-24 195.2l1.6 14.4-12.8 8c-11.2 6.4-12.8 22.4-11.2 33.6 1.6 16 11.2 36.8 32 44.8l11.2 3.2 3.2 11.2c16 46.4 73.6 193.6 187.2 187.2 105.6-6.4 161.6-124.8 184-193.6l4.8-12.8 12.8-3.2c11.2-3.2 17.6-11.2 20.8-24 4.8-19.2-3.2-43.2-17.6-56l-9.6-8 1.6-12.8c1.6-11.2 1.6-24 3.2-35.2 6.4-60.8 14.4-136-12.8-168-9.6-11.2-24-16-43.2-17.6-12.8 0-24-4.8-35.2-9.6-16-3.2-36.8-12.8-83.2-12.8z" p-id="3247" fill="#595a5a"></path></svg>