<?xml version="1.0" standalone="no"?><!DOCTYPE svg PUBLIC "-//W3C//DTD SVG 1.1//EN" "http://www.w3.org/Graphics/SVG/1.1/DTD/svg11.dtd"><svg t="1575773430609" class="icon" viewBox="0 0 1024 1024" version="1.1" xmlns="http://www.w3.org/2000/svg" p-id="4237" xmlns:xlink="http://www.w3.org/1999/xlink" width="128" height="128"><defs><style type="text/css"></style></defs><path d="M277.918 292c53.242 0 89.09-35.9 89.09-85.162 0-29.348-21.748-50.31-37.077-58.696-5.879-3.21-11.579-5.175-20.84-6.027-27.8-2.555-44.431 33.148-12.307 49.525 17.376 8.843 18.965 22.47 17.032 30.657-3.652 15.493-14.731 26.138-36.767 23.845-30.051-3.144-38.437-28.398-38.437-52.406 0-12.939 7.501-29.053 12.316-36.423 37.422-57.32 170.994-99.835 276.119-99.835 132.319 0 245.134 58.335 322.891 148.836 31.542 38.388 49.704 42.58 94.3 44.088C858.873 104.71 703.004 7.168 520.629 7.168c-115.05 0-242.432 39.96-302.978 109.53-18.268 20.963-31.018 50.31-29.609 85.948C190.136 255.609 224.668 292 277.918 292zM818.788 409.848c-25.818 46.576-11.791 95.348 31.297 119.226 25.68 14.216 54.544 5.372 69.324-3.996 5.666-3.57 10.113-7.598 15.353-15.296 15.723-23.06-7.46-54.928-37.33-34.752-16.182 10.875-28.858 5.666-35.082 0-11.782-10.678-15.754-25.547-3.046-43.695 17.328-24.762 43.481-19.848 64.485-8.22 11.308 6.255 21.757 20.634 25.885 28.43 32 60.53 4.429 197.968-46.512 289.909-64.14 115.752-169.872 186.14-286.714 210.281-48.853 8.942-61.34 22.799-84.293 61.087 168.808-4.03 329.687-93.087 418.1-252.6 55.781-100.622 82.566-231.409 51.073-318.109-9.499-26.139-28.956-51.524-60.792-67.54-47.362-23.846-95.938-11.268-121.748 35.275zM445.006 826.744c-27.342-45.66-76.57-57.975-118.831-32.688-25.18 15.1-31.985 44.545-31.29 61.971 0.238 6.716 1.507 12.61 5.527 20.995 12.095 25.155 51.269 21.06 48.796-14.903-1.302-19.457 9.547-27.809 17.556-30.363 15.174-4.816 30.019-0.787 39.363 19.292 12.733 27.382-4.627 47.56-25.213 59.909-11.105 6.648-28.775 8.482-37.586 8.155-68.407-2.654-173.507-95.414-227.519-185.587C47.812 620 39.902 493.24 77.594 380.042c16.753-46.773 11.006-64.525-10.62-103.568-81.134 148.082-84.728 331.93 8.981 488.399 59.105 98.687 158.842 187.452 249.636 203.665 27.366 4.882 59.089 0.755 88.928-18.768 44.375-29.02 57.853-77.333 30.487-123.026z" p-id="4238" fill="#595A5A"></path></svg>