<?xml version="1.0" standalone="no"?><!DOCTYPE svg PUBLIC "-//W3C//DTD SVG 1.1//EN" "http://www.w3.org/Graphics/SVG/1.1/DTD/svg11.dtd"><svg t="1581480488402" class="icon" viewBox="0 0 1035 1024" version="1.1" xmlns="http://www.w3.org/2000/svg" p-id="2337" xmlns:xlink="http://www.w3.org/1999/xlink" width="129.375" height="128"><defs><style type="text/css"></style></defs><path d="M949.726271 85.080936C893.28099 28.635655 815.771982 0.550686 738.262974 0.550686S583.244958 28.773326 526.799677 85.080936L89.8306 515.166443c-119.774133 119.774133-119.774133 310.173703 0 422.926593 56.445281 56.445281 133.954289 84.53025 211.463296 84.53025s155.018016-28.22264 211.463297-84.53025l436.969078-422.926593c56.445281-56.445281 84.53025-133.954289 84.53025-211.463297 0-84.667921-28.084969-162.176929-84.53025-218.62221zM484.534552 909.870395c-49.286367 49.286367-112.752891 77.509008-183.240656 77.509008s-133.954289-28.22264-183.240656-77.509008C19.342834 811.159989 19.342834 648.98306 117.915569 543.251412L315.336381 345.968271l366.481312 366.481312-197.283141 197.420812z m401.725195-733.100296c-7.021242 7.021242-21.201398 7.021242-28.22264 0-35.243883-35.243883-77.509008-49.286367-119.774133-49.286367-49.286367 0-91.689164 21.201398-119.774133 49.286367l-133.954289 140.975532c-14.042485 0-21.201398 7.021242-21.201398 7.021242-7.021242 0-14.042485 0-14.042484-7.021242-7.021242-7.021242-7.021242-21.201398 0-28.222641l140.975531-140.975531c42.265125-42.265125 91.689164-63.466523 155.018015-63.466523 56.445281 0 112.752891 21.201398 155.018016 63.466523-7.021242 7.021242-7.021242 21.201398-14.042485 28.22264z m0 0" p-id="2338" fill="#595a5a"></path></svg>