<?xml version="1.0" standalone="no"?><!DOCTYPE svg PUBLIC "-//W3C//DTD SVG 1.1//EN" "http://www.w3.org/Graphics/SVG/1.1/DTD/svg11.dtd"><svg t="1575388395686" class="icon" viewBox="0 0 1024 1024" version="1.1" xmlns="http://www.w3.org/2000/svg" p-id="2519" xmlns:xlink="http://www.w3.org/1999/xlink" width="128" height="128"><defs><style type="text/css"></style></defs><path d="M960 512c0-247.424-200.576-448-448-448-91.328 0-176.085 27.562-246.912 74.496-0.021 0-0.021 0.021-0.043 0.021-1.856 1.237-3.797 2.304-5.631 3.562l0.149 0.149c-9.621 6.422-16.362 16.854-16.362 29.291 0 19.798 16.042 35.84 35.84 35.84 12.438 0 23.275-5.313 32.299-13.312 58.112-36.756 126.784-58.346 200.64-58.346 207.829 0 376.32 168.491 376.32 376.32 0 48.214-9.344 94.165-25.962 136.47l-7.012 16.936c-14.568-4.683-30.097-7.222-46.221-7.222-83.338 0-150.897 67.559-150.897 150.897 0 16.139 2.544 31.682 7.235 46.261C618.596 876.457 566.724 888.32 512 888.32c-207.829 0-376.32-168.491-376.32-376.32 0-48.384 9.408-94.464 26.134-136.896l22.314 64.235c6.251 18.005 27.179 27.967 46.72 22.25 19.541-5.716 30.315-24.96 24.065-43.008l-51.03-146.795c-6.25-18.026-27.179-27.968-46.72-22.25-4.096 1.216-7.574 3.285-10.816 5.546l-4.266 4.331C92.885 331.349 64 418.261 64 512c0 247.424 200.576 448 448 448 68.568 0 133.432-15.551 191.47-43.154C730.689 943.535 767.97 960 809.103 960 892.441 960 960 892.441 960 809.103c0-41.076-16.42-78.311-43.044-105.52C944.522 645.495 960 580.568 960 512zM788.072 928l17.609-88.073h-88.073L832.108 699l-17.609 88.073h88.073L788.072 928z" p-id="2520" fill="#595A5A"></path><path d="M717.597 623.227H563.291v96.554h-55.496v-96.554H304.759v-51.436h71.288V453.579h131.747v-54.143h-96.555c-18.499 32.035-40.156 60.911-61.362 82.117-10.377-9.024-33.388-27.071-46.472-34.742 40.607-34.291 75.349-92.043 94.75-150.246l54.594 13.987c-4.061 12.634-9.024 24.815-14.889 36.997h254.923v51.887H563.291v54.143h119.114v49.631H563.291v68.58h154.306v51.437z m-209.803-51.436v-68.58h-78.056v68.58h78.056z" p-id="2521" fill="#595A5A"></path></svg>