<?xml version="1.0" standalone="no"?><!DOCTYPE svg PUBLIC "-//W3C//DTD SVG 1.1//EN" "http://www.w3.org/Graphics/SVG/1.1/DTD/svg11.dtd"><svg t="1575773508343" class="icon" viewBox="0 0 1024 1024" version="1.1" xmlns="http://www.w3.org/2000/svg" p-id="5649" xmlns:xlink="http://www.w3.org/1999/xlink" width="128" height="128"><defs><style type="text/css"></style></defs><path d="M738.266815 846.678432 151.947156 846.678432c-36.747949 0-66.642816-29.893844-66.642816-66.642816L85.30434 351.458607c0-36.748972 29.893844-66.642816 66.642816-66.642816l586.319659 0c36.730553 0 66.607 29.893844 66.607 66.642816l0 428.577009C804.873816 816.784588 774.997368 846.678432 738.266815 846.678432zM151.947156 320.903707c-16.845667 0-30.553876 13.70821-30.553876 30.5549l0 428.577009c0 16.844643 13.70821 30.552853 30.553876 30.552853l586.319659 0c16.827247 0 30.518061-13.70821 30.518061-30.552853L768.784876 351.458607c0-16.845667-13.690814-30.5549-30.518061-30.5549L151.947156 320.903707z" p-id="5650" fill="#595A5A"></path><path d="M868.475366 741.515301l-68.500117 0 0-36.087916 68.500117 0c17.534352 0 31.798217-14.246469 31.798217-31.752168L900.273583 247.494791c0-17.505699-14.263865-31.752168-31.798217-31.752168L271.452947 215.742623c-17.524119 0-31.787984 14.246469-31.787984 31.752168l0 42.219567-36.087916 0 0-42.219567c0-37.409005 30.448476-67.840084 67.8759-67.840084l597.022419 0c37.436634 0 67.886133 30.43108 67.886133 67.840084l0 426.181449C936.361499 711.084221 905.912 741.515301 868.475366 741.515301z" p-id="5651" fill="#595A5A"></path><path d="M767.895623 809.875225 600.963683 666.767899 467.732286 746.704486 286.474059 539.562752 116.10688 709.974957 90.591763 684.457794 288.218796 486.769362 475.027435 700.239222 604.699774 622.434182 791.384593 782.476201Z" p-id="5652" fill="#595A5A"></path><path d="M615.977631 557.51666c-46.176692 0-83.7351-37.57478-83.7351-83.768869 0-46.201252 37.558407-83.787288 83.7351-83.787288 46.175669 0 83.734076 37.586037 83.734076 83.787288C699.711707 519.940856 662.1533 557.51666 615.977631 557.51666zM615.977631 426.047396c-26.273387 0-47.648207 21.400403-47.648207 47.699372 0 26.28976 21.37482 47.682999 47.648207 47.682999 26.272363 0 47.64616-21.392216 47.64616-47.682999C663.623791 447.448822 642.249995 426.047396 615.977631 426.047396z" p-id="5653" fill="#595A5A"></path></svg>