<?xml version="1.0" standalone="no"?><!DOCTYPE svg PUBLIC "-//W3C//DTD SVG 1.1//EN" "http://www.w3.org/Graphics/SVG/1.1/DTD/svg11.dtd"><svg t="1571729027373" class="icon" viewBox="0 0 1024 1024" version="1.1" xmlns="http://www.w3.org/2000/svg" p-id="2573" xmlns:xlink="http://www.w3.org/1999/xlink" width="128" height="128"><defs><style type="text/css"></style></defs><path d="M512 229.94012c49.053892 0 87.888224-38.834331 87.888224-86.866268S560.031936 56.207585 512 56.207585c-49.053892 0-87.888224 38.834331-87.888224 86.866267s38.834331 86.866267 87.888224 86.866268z m0 56.207585c-79.712575 0-144.095808-64.383234-144.095808-143.073853S432.287425 0 512 0s144.095808 64.383234 144.095808 143.073852S591.712575 286.147705 512 286.147705zM204.391218 478.275449c-61.317365 0-101.173653-32.702595-101.173653-85.844311 0-52.11976 39.856287-85.844311 101.173653-85.844312h436.375249c15.329341 0 28.61477 12.263473 28.614771 27.592815 0 15.329341-12.263473 27.592814-28.614771 27.592814H204.391218c-30.658683 0-44.966068 10.219561-44.966068 29.636727 0 20.439122 14.307385 29.636727 44.966068 29.636726h183.952095l6.131737 6.131737v504.846307c0 24.526946 5.10978 32.702595 17.373253 32.702595s17.373253-8.175649 17.373254-32.702595V766.467066c0-32.702595 26.570858-58.251497 59.273453-58.251497h40.878243c32.702595 0 59.273453 26.570858 59.273454 58.251497v166.578842c0 24.526946 5.10978 32.702595 17.373253 32.702595s17.373253-8.175649 17.373254-32.702595V428.199601l6.131736-6.131737h192.127745c30.658683 0 44.966068-10.219561 44.966067-29.636726 0-20.439122-14.307385-29.636727-44.966067-29.636727h-51.097805c-15.329341 0-28.61477-12.263473-28.61477-27.592814 0-15.329341 12.263473-27.592814 28.61477-27.592815h51.097805c61.317365 0 101.173653 32.702595 101.173652 85.844312s-39.856287 85.844311-101.173652 85.844311H679.600798v455.792415c0 55.185629-26.570858 88.91018-73.580838 88.91018S532.439122 990.275449 532.439122 935.08982V765.44511h-45.988024v169.64471c0 55.185629-26.570858 88.91018-73.580839 88.91018s-73.580838-33.724551-73.580838-88.91018V479.297405H204.391218z" fill="#595A5A" p-id="2574"></path></svg>