<?xml version="1.0" standalone="no"?><!DOCTYPE svg PUBLIC "-//W3C//DTD SVG 1.1//EN" "http://www.w3.org/Graphics/SVG/1.1/DTD/svg11.dtd"><svg t="1575560822916" class="icon" viewBox="0 0 1194 1024" version="1.1" xmlns="http://www.w3.org/2000/svg" p-id="2724" xmlns:xlink="http://www.w3.org/1999/xlink" width="149.25" height="128"><defs><style type="text/css"></style></defs><path d="M1100.202667 880.554667H95.146667A94.378667 94.378667 0 0 1 0.853333 786.261333V95.317333C0.853333 43.52 43.093333 1.024 95.146667 1.024h1005.056c51.882667 0 94.293333 42.24 94.293333 94.293333v690.944c0 51.882667-42.410667 94.293333-94.293333 94.293334zM95.146667 63.914667a31.402667 31.402667 0 0 0-31.402667 31.402666v690.944c0 17.322667 14.08 31.402667 31.402667 31.402667h1005.056a31.402667 31.402667 0 0 0 31.402666-31.402667V95.317333a31.402667 31.402667 0 0 0-31.402666-31.402666H95.146667z m863.914666 913.066666h-708.266666a1.962667 1.962667 0 0 1-1.962667-1.962666v-67.413334c0-1.024 0.853333-1.877333 1.877333-1.877333h708.266667c1.109333 0 1.962667 0.853333 1.962667 1.877333v67.413334c0 1.024-0.853333 1.877333-1.877334 1.877333z" fill="#595A5A" fill-opacity=".65" p-id="2725"></path><path d="M855.04 568.661333a31.402667 31.402667 0 0 1-26.624-14.506666l-168.96-267.264a31.232 31.232 0 1 1 52.992-33.536L881.493333 520.533333a31.232 31.232 0 0 1-26.453333 48.042667zM764.928 708.949333H413.013333a31.402667 31.402667 0 1 1 0-62.805333h351.829334a31.402667 31.402667 0 1 1 0 62.805333zM359.765333 568.661333a31.573333 31.573333 0 0 1-26.538666-48.213333L489.130667 273.92a31.402667 31.402667 0 1 1 53.162666 33.706667L386.389333 554.069333a31.573333 31.573333 0 0 1-26.624 14.592z" fill="#595A5A" fill-opacity=".65" p-id="2726"></path><path d="M601.6 353.706667a125.781333 125.781333 0 1 1 0.256-251.562667 125.781333 125.781333 0 0 1-0.170667 251.562667z m0-188.416a62.976 62.976 0 0 0 0 125.696 62.976 62.976 0 0 0 0-125.696zM319.061333 763.733333a125.781333 125.781333 0 1 1 0.170667-251.562666 125.781333 125.781333 0 0 1-0.170667 251.562666z m0-188.586666a62.976 62.976 0 0 0 0 125.781333c34.56 0 62.890667-28.16 62.890667-62.890667a63.146667 63.146667 0 0 0-62.890667-62.805333zM876.373333 763.733333A125.781333 125.781333 0 1 1 876.544 512a125.781333 125.781333 0 0 1-0.170667 251.562667z m0-188.586666a62.976 62.976 0 0 0 0 125.696 62.976 62.976 0 0 0 0-125.696z" fill="#595A5A" fill-opacity=".65" p-id="2727"></path></svg>