<?xml version="1.0" standalone="no"?><!DOCTYPE svg PUBLIC "-//W3C//DTD SVG 1.1//EN" "http://www.w3.org/Graphics/SVG/1.1/DTD/svg11.dtd"><svg t="1564915169786" class="icon" viewBox="0 0 1024 1024" version="1.1" xmlns="http://www.w3.org/2000/svg" p-id="3473" xmlns:xlink="http://www.w3.org/1999/xlink" width="200" height="200"><defs><style type="text/css"></style></defs><path d="M614.4 450.56c-20.48 0-38.4 17.92-38.4 38.4s17.92 38.4 38.4 38.4 38.4-17.92 38.4-38.4-17.92-38.4-38.4-38.4z m-166.4 25.6h-76.8v-76.8c0-15.36-10.24-25.6-25.6-25.6s-25.6 10.24-25.6 25.6v76.8h-76.8c-15.36 0-25.6 10.24-25.6 25.6s10.24 25.6 25.6 25.6h76.8v76.8c0 15.36 10.24 25.6 25.6 25.6s25.6-10.24 25.6-25.6v-76.8h76.8c15.36 0 25.6-10.24 25.6-25.6s-10.24-25.6-25.6-25.6z m243.2 76.8c-20.48 0-38.4 17.92-38.4 38.4s17.92 38.4 38.4 38.4 38.4-17.92 38.4-38.4-17.92-38.4-38.4-38.4z m89.6-281.6h-512c-84.48 0-153.6 69.12-153.6 153.6v153.6c0 84.48 69.12 153.6 153.6 153.6h512c84.48 0 153.6-69.12 153.6-153.6v-153.6c0-84.48-69.12-153.6-153.6-153.6z m102.4 307.2c0 56.32-46.08 102.4-102.4 102.4h-512c-56.32 0-102.4-46.08-102.4-102.4v-153.6c0-56.32 46.08-102.4 102.4-102.4h512c56.32 0 102.4 46.08 102.4 102.4v153.6z m-166.4-204.8c-20.48 0-38.4 17.92-38.4 38.4s17.92 38.4 38.4 38.4 38.4-17.92 38.4-38.4-17.92-38.4-38.4-38.4z m76.8 102.4c-20.48 0-38.4 17.92-38.4 38.4s17.92 38.4 38.4 38.4 38.4-17.92 38.4-38.4-17.92-38.4-38.4-38.4z" p-id="3474" fill="#595A5A"></path></svg>