<?xml version="1.0" standalone="no"?><!DOCTYPE svg PUBLIC "-//W3C//DTD SVG 1.1//EN" "http://www.w3.org/Graphics/SVG/1.1/DTD/svg11.dtd"><svg t="1582198636119" class="icon" viewBox="0 0 1024 1024" version="1.1" xmlns="http://www.w3.org/2000/svg" p-id="2185" xmlns:xlink="http://www.w3.org/1999/xlink" width="128" height="128"><defs><style type="text/css"></style></defs><path d="M715.383467 392.772267c-170.4448 0-308.5824 138.154667-308.5824 308.5824 0 170.4448 138.171733 308.616533 308.5824 308.616533C885.828267 1009.9712 1024 871.799467 1024 701.354667c0-170.427733-138.171733-308.5824-308.616533-308.5824z m138.461866 403.968c-4.522667 29.5424-20.8384 94.1056-109.226666 100.539733v56.576h-62.446934v-56.1152c-37.290667-5.290667-71.68-14.984533-107.042133-26.897067l18.7392-73.847466c28.023467 11.008 64.938667 22.784 97.450667 26.5728 44.0832 5.1712 73.813333-3.976533 76.5952-36.130134 6.280533-56.354133-190.139733-66.269867-188.296534-168.004266-2.679467-74.7008 51.182933-107.246933 104.8576-111.752534V448.853333h62.395734v56.1152c35.447467 0.443733 63.522133 8.106667 90.862933 20.1728l-17.322667 69.5808c-27.460267-10.410667-55.534933-20.189867-89.173333-20.189866-21.742933 0-67.464533 0.068267-69.051733 30.2592 0 52.053333 86.4256 54.698667 115.1488 66.9696 20.923733 8.925867 35.498667 17.698133 50.3808 32.341333 26.0096 25.565867 31.402667 58.5216 26.129066 92.6208zM385.774933 0C172.680533 0 0 84.7872 0 189.371733c0 104.567467 172.680533 189.371733 385.774933 189.371734 213.0432 0 385.723733-84.770133 385.723734-189.371734C771.498667 84.7872 598.818133 0 385.792 0z m173.056 254.6688c-5.666133 18.0736-26.0608 57.514667-136.533333 61.44v34.577067H344.234667v-34.304c-46.592-3.242667-89.6-9.181867-133.819734-16.4864l23.466667-45.1072c35.003733 6.724267 81.117867 13.9264 121.787733 16.2304 55.074133 3.157333 92.2624-2.423467 95.6928-22.0672 7.867733-34.474667-237.636267-40.516267-235.349333-102.673067-3.362133-45.636267 64-65.553067 131.0208-68.283733V42.0864h77.994667v34.304c44.3392 0.238933 79.4112 4.949333 113.5616 12.288l-21.623467 42.530133c-34.338133-6.3488-69.393067-12.322133-111.445333-12.322133-27.221333 0-84.309333 0.0512-86.306134 18.4832 0 31.7952 108.032 33.4336 143.9232 40.9088 26.1632 5.461333 44.373333 10.8032 62.976 19.797333 32.546133 15.633067 39.253333 35.771733 32.733867 56.593067zM505.002667 436.360533c-38.058667 6.4512-78.677333 10.069333-121.002667 10.069334-182.749867 0-335.325867-64.955733-374.152533-151.8592C3.584 308.514133 0 323.003733 0 337.92c0 107.758933 171.861333 195.140267 383.965867 195.140267 10.325333 0 20.411733-0.375467 30.5152-0.785067a338.039467 338.039467 0 0 1 90.504533-95.8976z m242.756266-57.617066c6.144-13.738667 9.728-27.989333 9.728-42.734934 0-14.267733-3.293867-28.091733-9.079466-41.437866-12.765867 29.576533-39.099733 56.405333-75.076267 78.7968 5.051733-0.256 10.018133-0.836267 15.121067-0.836267 20.309333 0 40.106667 2.218667 59.306666 6.212267z m-362.820266 194.218666c-183.1936 0-336.145067-65.0752-375.057067-152.132266C3.584 434.7904 0 449.297067 0 464.213333c0 104.891733 162.798933 190.293333 367.0016 195.072a344.064 344.064 0 0 1 25.770667-86.528c-2.594133 0.0512-5.2224 0.2048-7.850667 0.2048z m-27.5456 125.730134C186.7264 693.7088 46.455467 630.613333 9.728 547.072 3.5328 561.032533 0 575.556267 0 590.472533c0 105.472 162.065067 191.197867 364.714667 195.072a353.621333 353.621333 0 0 1-7.901867-73.642666c0-4.420267 0.392533-8.789333 0.5632-13.2096zM9.728 673.314133C3.5328 687.274667 0 701.730133 0 716.629333c0 107.776 169.728 195.157333 379.170133 195.157334 14.114133 0 27.972267-0.443733 41.642667-1.194667a344.132267 344.132267 0 0 1-43.758933-85.469867C197.512533 824.593067 47.872 759.876267 9.728 673.314133z m452.744533 260.113067c-24.576 2.5088-49.92 3.925333-76.014933 3.925333-183.9104 0-337.476267-64.9216-376.541867-151.825066-6.2976 13.943467-9.898667 28.416-9.898666 43.332266C0 936.6016 172.987733 1024 386.440533 1024c62.941867 0 122.180267-7.765333 174.660267-21.248a332.424533 332.424533 0 0 1-98.645333-69.3248z" p-id="2186" fill="#303133"></path></svg>