<?xml version="1.0" standalone="no"?><!DOCTYPE svg PUBLIC "-//W3C//DTD SVG 1.1//EN" "http://www.w3.org/Graphics/SVG/1.1/DTD/svg11.dtd"><svg t="1582198612075" class="icon" viewBox="0 0 1024 1024" version="1.1" xmlns="http://www.w3.org/2000/svg" p-id="1953" xmlns:xlink="http://www.w3.org/1999/xlink" width="128" height="128"><defs><style type="text/css"></style></defs><path d="M80.896 145.92h491.52c11.264 0 20.48-9.216 20.48-20.48v-51.2c0-11.264-9.216-20.48-20.48-20.48h-491.52c-11.264 0-20.48 9.216-20.48 20.48v51.2c0 11.264 9.216 20.48 20.48 20.48zM477.696 216.064H152.064c-11.264 0-20.48 9.216-20.48 20.48v51.2c0 11.264 9.216 20.48 20.48 20.48h199.68c35.84-37.888 78.336-69.12 125.952-92.16zM301.056 373.248H20.48c-11.264 0-20.48 9.216-20.48 20.48v51.2c0 11.264 9.216 20.48 20.48 20.48h237.056c10.752-32.256 25.6-63.488 43.52-92.16zM236.032 599.552c0-22.016 1.536-44.032 5.12-65.024H131.072c-11.264 0-20.48 9.216-20.48 20.48v51.2c0 11.264 9.216 20.48 20.48 20.48h105.472c-0.512-8.704-0.512-17.92-0.512-27.136zM246.784 695.808H65.024c-11.264 0-20.48 9.216-20.48 20.48v51.2c0 11.264 9.216 20.48 20.48 20.48h214.528c-14.336-29.184-25.088-59.904-32.768-92.16zM660.992 231.424c-200.704 0-363.52 162.816-363.52 363.52s162.816 363.52 363.52 363.52 363.52-162.816 363.52-363.52-162.816-363.52-363.52-363.52z m0 655.36c-161.28 0-291.84-130.56-291.84-291.84s130.56-291.84 291.84-291.84 291.84 130.56 291.84 291.84-131.072 291.84-291.84 291.84z" fill="#303133" p-id="1954"></path><path d="M768.512 642.56H691.2v-39.936h77.312c16.896 0 30.208-13.312 30.208-30.208 0-16.896-13.312-30.208-30.208-30.208h-65.024l70.144-70.144c11.776-11.776 11.776-30.72 0-42.496-11.776-11.776-30.72-11.776-42.496 0l-70.144 70.144-70.144-70.144c-11.776-11.776-30.72-11.776-42.496 0-11.776 11.776-11.776 30.72 0 42.496l70.144 70.144H552.96c-16.896 0-30.208 13.312-30.208 30.208 0 16.896 13.312 30.208 30.208 30.208h77.312v39.936H552.96c-16.896 0-30.208 13.312-30.208 30.208 0 16.896 13.312 30.208 30.208 30.208h77.312v53.76c0 16.896 13.312 30.208 30.208 30.208 16.896 0 30.208-13.312 30.208-30.208v-53.76H768c16.896 0 30.208-13.312 30.208-30.208 0.512-16.896-13.312-30.208-29.696-30.208z" fill="#303133" p-id="1955"></path></svg>