<?xml version="1.0" standalone="no"?><!DOCTYPE svg PUBLIC "-//W3C//DTD SVG 1.1//EN" "http://www.w3.org/Graphics/SVG/1.1/DTD/svg11.dtd"><svg t="1579529944221" class="icon" viewBox="0 0 1024 1024" version="1.1" xmlns="http://www.w3.org/2000/svg" p-id="2129" xmlns:xlink="http://www.w3.org/1999/xlink" width="128" height="128"><defs><style type="text/css"></style></defs><path d="M889.018182 521.309091c-34.909091-18.618182-74.472727-27.927273-116.363637-27.927273-144.290909 0-260.654545 116.363636-260.654545 260.654546 0 95.418182 51.2 179.2 128 223.418181H232.727273c-102.4 0-186.181818-83.781818-186.181818-186.181818V232.727273c0-102.4 83.781818-186.181818 186.181818-186.181818h470.109091c102.4 0 186.181818 83.781818 186.181818 186.181818v288.581818z m-653.963637-223.418182h465.454546c18.618182 0 34.909091-16.290909 34.909091-34.909091s-16.290909-34.909091-34.909091-34.909091h-465.454546c-18.618182 0-34.909091 16.290909-34.90909 34.909091s13.963636 34.909091 34.90909 34.909091z m0 179.2h260.654546c18.618182 0 34.909091-16.290909 34.909091-34.909091s-16.290909-34.909091-34.909091-34.909091H235.054545c-18.618182 0-34.909091 16.290909-34.90909 34.909091s13.963636 34.909091 34.90909 34.909091z m0 160.581818h116.363637c18.618182 0 34.909091-16.290909 34.909091-34.909091s-16.290909-34.909091-34.909091-34.909091h-116.363637c-18.618182 0-34.909091 16.290909-34.90909 34.909091s13.963636 34.909091 34.90909 34.909091z m0 179.2h116.363637c18.618182 0 34.909091-16.290909 34.909091-34.909091s-16.290909-34.909091-34.909091-34.909091h-116.363637c-18.618182 0-34.909091 16.290909-34.90909 34.909091-2.327273 18.618182 13.963636 34.909091 34.90909 34.909091z m311.854546-62.836363c0-123.345455 100.072727-223.418182 223.418182-223.418182s223.418182 100.072727 223.418182 223.418182-100.072727 223.418182-223.418182 223.418181-223.418182-100.072727-223.418182-223.418181z m242.036364-97.745455c0-13.963636-11.636364-27.927273-27.927273-27.927273-13.963636 0-27.927273 11.636364-27.927273 27.927273v121.018182l88.436364 88.436364c11.636364 11.636364 27.927273 11.636364 37.236363 0 11.636364-11.636364 11.636364-27.927273 0-37.236364l-72.145454-72.145455v-100.072727z" p-id="2130" fill="#595a5a"></path></svg>