<?xml version="1.0" standalone="no"?><!DOCTYPE svg PUBLIC "-//W3C//DTD SVG 1.1//EN" "http://www.w3.org/Graphics/SVG/1.1/DTD/svg11.dtd"><svg t="1575472583720" class="icon" viewBox="0 0 1024 1024" version="1.1" xmlns="http://www.w3.org/2000/svg" p-id="4667" xmlns:xlink="http://www.w3.org/1999/xlink" width="128" height="128"><defs><style type="text/css"></style></defs><path d="M657.728 293.824h331.84c1.6 9.44 2.432 19.2 2.432 29.088 0 96.384-78.144 203.648-174.56 203.648v-72.576a159.776 159.776 0 0 0-159.68-160.16z m-291.456 0c-87.84 0-159.712 71.68-159.712 160.16v72.576C110.144 526.56 32 419.296 32 322.88c0-9.92 0.832-19.648 2.4-29.12h331.84z" fill="#595A5A" fill-opacity=".4" p-id="4668"></path><path d="M780.992 352a159.2 159.2 0 0 0-123.264-58.176h331.84c1.6 9.44 2.432 19.2 2.432 29.088 0 96.384-78.144 203.648-174.56 203.648v-58.208c49.152 0 100.352-54.848 113.28-116.352h-149.76zM243.2 352H93.28c12.928 61.504 64.128 116.352 113.28 116.352v58.208C110.144 526.56 32 419.296 32 322.88c0-9.92 0.832-19.648 2.4-29.12h331.84A159.36 159.36 0 0 0 243.264 352z" fill="#595A5A" p-id="4669"></path><path d="M264.736 439.36v247.424c0 136.384 110.72 247.04 247.264 247.04 136.608 0 247.264-110.592 247.264-247.04v-247.456A87.296 87.296 0 0 0 671.904 352h-319.808a87.488 87.488 0 0 0-87.36 87.36z m-58.176 0a145.664 145.664 0 0 1 145.536-145.536h319.808a145.472 145.472 0 0 1 145.536 145.504v247.456C817.44 855.36 680.736 992 512 992c-168.704 0-305.44-136.704-305.44-305.216v-247.456z" fill="#595A5A" p-id="4670"></path><path d="M410.176 730.176a101.824 58.176 0 1 0 203.648 0 101.824 58.176 0 1 0-203.648 0Z" fill="#595A5A" fill-opacity=".4" p-id="4671"></path><path d="M308.352 62.336a29.12 29.12 0 1 1 58.208 0v146.112a29.12 29.12 0 1 1-58.208 0V62.336z" fill="#595A5A" p-id="4672"></path><path d="M180.896 63.04a29.12 29.12 0 1 1 58.176 0v118.496c0 0.192-0.096 0.096 0.224 0.096h146.048a58.24 58.24 0 0 1 58.4 58.144v64.384a29.12 29.12 0 0 1-58.176 0V239.776c0 0.064-0.032 0.032-0.224 0.032H239.296a58.144 58.144 0 0 1-58.4-58.24V63.04z" fill="#595A5A" p-id="4673"></path><path d="M715.648 62.336a29.12 29.12 0 0 0-58.208 0v146.112a29.12 29.12 0 1 0 58.208 0V62.336z" fill="#595A5A" p-id="4674"></path><path d="M843.104 63.04a29.12 29.12 0 1 0-58.176 0v118.496c0 0.192 0.096 0.096-0.224 0.096h-146.048a58.24 58.24 0 0 0-58.4 58.144v64.384a29.12 29.12 0 0 0 58.176 0V239.776c0 0.064 0.032 0.032 0.224 0.032h146.048a58.144 58.144 0 0 0 58.4-58.24V63.04z" fill="#595A5A" p-id="4675"></path></svg>